<svg version="1.1" xmlns="http://www.w3.org/2000/svg" xmlns:xlink="http://www.w3.org/1999/xlink" width="205.41184" height="130.54431" viewBox="0,0,205.41184,130.54431"><g transform="translate(-137.29661,-114.72784)"><g data-paper-data="{&quot;isPaintingLayer&quot;:true}" fill-rule="nonzero" stroke="#000000" stroke-width="2" stroke-linecap="butt" stroke-linejoin="miter" stroke-miterlimit="10" stroke-dasharray="" stroke-dashoffset="0" style="mix-blend-mode: normal"><g><path d="M317.70759,236.17088c0,4.4742 -37.63074,8.10127 -84.05062,8.10127c-46.41988,0 -84.05063,-3.62706 -84.05063,-8.10127c0,-4.47421 37.63075,-8.10127 84.05063,-8.10127c46.41988,0 84.05063,3.62706 84.05063,8.10127z" fill="#000000"/><path d="M314.73291,123.82911c0,4.47421 -37.63075,8.10127 -84.05063,8.10127c-46.41988,0 -84.05063,-3.62706 -84.05063,-8.10127c0,-4.47421 37.63075,-8.10127 84.05063,-8.10127c46.41988,0 84.05063,3.62706 84.05063,8.10127z" fill="#000000"/><path d="M305.94253,135.68088l0.90558,86.63456l-130.41645,1.59361l-0.44451,-87.5685z" fill="#82ff66"/><path d="M287.42206,157.66758c-0.02285,-4.50185 -0.83417,-6.74989 3.92493,-6.77405c4.7591,-0.02416 5.83144,1.75676 5.85429,6.2586c0.02285,4.50185 0.84127,8.14726 -3.91784,8.17142c-4.7591,0.02416 -5.83854,-3.15412 -5.86139,-7.65598z" fill="#000000"/><path d="M326.28168,131.08268c0.28523,24.07413 1.00465,84.79379 1.15397,97.39502c0.0531,4.48197 -15.36164,8.66357 -25.79627,8.68626c-15.93912,0.03466 -60.42986,0.13143 -60.42986,0.13143c0,0 35.51367,-38.60583 35.2836,-58.0221c-0.22763,-19.21079 -36.65671,-57.86565 -36.65671,-57.86565c0,0 50.49762,-0.10982 66.18505,-0.14393c8.6544,-0.01882 20.18771,3.7063 20.26014,9.81897z" fill="#82ff66"/><path d="M138.72159,227.56941c-1.06905,-24.13389 0.28519,-86.52324 -0.2744,-99.15574c-0.19903,-4.49309 20.61592,-7.21627 37.51883,-7.27289c25.81963,-0.08647 97.88954,-0.32783 97.88954,-0.32783c0,0 -56.55669,38.81837 -55.69448,58.28284c0.8531,19.25848 60.84072,57.89254 60.84072,57.89254c0,0 -81.80043,0.27396 -107.21235,0.35906c-14.01922,0.04695 -32.79641,-3.65014 -33.06783,-9.77799z" fill="#82ff66"/><path d="M300.53589,138.21905c-0.02057,-4.05167 3.24729,-7.35287 7.29896,-7.37344c4.05167,-0.02057 7.35287,3.24729 7.37344,7.29896c0.02057,4.05167 -3.24729,7.35287 -7.29896,7.37344c-4.05167,0.02057 -7.35287,-3.24729 -7.37344,-7.29896z" fill="#2a2a2a"/><path d="M303.54728,152.86287v-11.13924h9.11392v11.13924z" fill="#82ff66"/><path d="M341.69866,137.2811l0.00473,0.93158l-19.09738,0.09694l-0.00473,-0.93158z" fill="#5c5c5c"/><path d="M326.37811,133.83715l0.0402,7.91843l-35.40003,0.1797l-0.0402,-7.91843z" fill="#5c5c5c"/></g></g></g></svg>